<svg viewBox = "0 0 236.8 218.5" width="236.8" height="218.5" xmlns="http://www.w3.org/2000/svg"><g transform="matrix(1 0 0 1 118.4 109.25)"  ><g style=""   ><g transform="matrix(1 0 0 1 -64.13 46.54)" id="Layer_1"  ><path style="stroke: none; stroke-width: 1; stroke-dasharray: none; stroke-linecap: butt; stroke-dashoffset: 0; stroke-linejoin: miter; stroke-miterlimit: 4; fill: rgb(255,255,255); fill-rule: nonzero; opacity: 1;"  transform=" translate(-54.27, -155.79)" d="M 66.1 172.8 C 66.69999999999999 169.10000000000002 68.6 162.8 67.5 159.3 C 66.5 156.3 63.6 156.20000000000002 61.3 154.3 C 57.5 151.10000000000002 57.5 145.60000000000002 53.699999999999996 142.20000000000002 C 50.699999999999996 139.50000000000003 46.49999999999999 138.60000000000002 42.599999999999994 137.9 C 40.699999999999996 137.6 39.89999999999999 140.4 41.8 140.8 C 47.4 142 51.5 143.20000000000002 54.4 148.70000000000002 C 55.6 151.10000000000002 56.199999999999996 153.70000000000002 57.9 155.8 C 59.3 157.5 60.699999999999996 157.8 62.4 158.9 C 66.2 161.5 63.699999999999996 168.4 63.5 172.4 C 63.4 173.9 65.9 174.2 66.1 172.8 L 66.1 172.8 z" stroke-linecap="round" /></g><g transform="matrix(1 0 0 1 0.59 -0.48)" id="Layer_1"  ><path style="stroke: none; stroke-width: 1; stroke-dasharray: none; stroke-linecap: butt; stroke-dashoffset: 0; stroke-linejoin: miter; stroke-miterlimit: 4; fill: rgb(255,255,255); fill-rule: nonzero; opacity: 1;"  transform=" translate(-118.99, -108.77)" d="M 111.6 27.1 C 43.3 25.3 6 129.5 59.5 172 C 88.3 194.9 133.5 198 165.1 179.6 C 195.5 161.9 210.89999999999998 119.89999999999999 200.89999999999998 86.1 C 189.39999999999998 47.3 149.79999999999998 28.699999999999996 112.39999999999998 25.999999999999993 C 110.29999999999998 25.799999999999994 110.29999999999998 29.099999999999994 112.39999999999998 29.299999999999994 C 152.89999999999998 32.3 198.89999999999998 56.599999999999994 199.99999999999997 102.7 C 201.09999999999997 149 170.29999999999998 187.4 122.39999999999998 188.5 C 100.99999999999997 189 74.19999999999997 181.4 58.199999999999974 166.8 C 43.199999999999974 153 36.09999999999997 128.4 37.59999999999997 108.50000000000001 C 40.59999999999997 67.80000000000001 70.29999999999998 33.20000000000002 111.69999999999996 29.200000000000017 C 112.9 29 113 27.1 111.6 27.1 L 111.6 27.1 z" stroke-linecap="round" /></g><g transform="matrix(1 0 0 1 -22.75 4.11)" id="Layer_1"  ><path style="stroke: none; stroke-width: 1; stroke-dasharray: none; stroke-linecap: butt; stroke-dashoffset: 0; stroke-linejoin: miter; stroke-miterlimit: 4; fill: rgb(29,141,227); fill-rule: nonzero; opacity: 1;"  transform=" translate(-95.65, -113.36)" d="M 108.6 119.2 C 108.69999999999999 117.5 108.8 115.7 108.89999999999999 114 C 108.99999999999999 113.1 108.49999999999999 112.3 107.6 112.3 C 105.6 109.39999999999999 103.6 106.5 101.69999999999999 103.5 C 102.29999999999998 102.8 102.99999999999999 102.2 103.6 101.5 C 104 100.6 110.19999999999999 96.5 111 96 C 114.8 93.6 117.5 92.9 120.5 88.9 C 126.2 81.2 126.1 71.10000000000001 125.9 61.900000000000006 C 125.9 60.900000000000006 124.7 60.00000000000001 123.80000000000001 60.7 C 120.70000000000002 63.1 104.00000000000001 69.2 110.4 63.1 C 111.7 61.9 115 61 116.5 60 C 119.7 57.9 125.3 54 125.9 49.9 C 127.9 37.599999999999994 109.10000000000001 42.3 102.5 43.9 C 94.9 45.699999999999996 90 46.9 83.4 50.4 C 72 56.5 76.6 51.6 70 53 C 65 54.1 67.3 52.4 63.6 54.8 C 57.5 58.699999999999996 49.7 71.6 56.300000000000004 76.69999999999999 C 56.800000000000004 77.1 73.60000000000001 82.79999999999998 65.80000000000001 78.29999999999998 C 71.50000000000001 81.59999999999998 69.4 83.39999999999998 70.00000000000001 88.69999999999999 C 70.70000000000002 94.69999999999999 70.90000000000002 100.99999999999999 74.40000000000002 106.19999999999999 C 78.90000000000002 112.99999999999999 85.70000000000002 112.99999999999999 91.70000000000002 117.49999999999999 C 108.00000000000001 129.89999999999998 93.90000000000002 131.6 90.90000000000002 142.2 C 89.60000000000002 146.6 90.90000000000002 149.5 94.40000000000002 152.29999999999998 C 97.30000000000003 154.7 101.50000000000001 154.2 104.40000000000002 156.1 C 113.30000000000003 162 108.50000000000001 165.79999999999998 110.90000000000002 172.79999999999998 C 112.30000000000003 176.79999999999998 121.20000000000002 188.6 126.10000000000002 183.99999999999997 C 126.50000000000003 183.59999999999997 126.60000000000002 182.99999999999997 126.50000000000003 182.49999999999997 C 125.20000000000003 177.39999999999998 122.90000000000003 174.99999999999997 124.00000000000003 169.39999999999998 C 125.10000000000002 163.7 128.70000000000002 159.99999999999997 131.40000000000003 154.99999999999997 C 134.00000000000003 150.29999999999998 138.80000000000004 142.59999999999997 137.20000000000005 136.89999999999998 C 136.80000000000004 135.59999999999997 136.00000000000006 134.39999999999998 135.20000000000005 133.39999999999998 C 133.30000000000004 130.89999999999998 129.40000000000003 130.29999999999998 126.80000000000004 128.59999999999997 C 123.30000000000004 126.29999999999997 121.20000000000005 122.79999999999997 118.10000000000004 120.19999999999996 C 113.90000000000003 116.69999999999996 112.30000000000004 116.29999999999995 106.90000000000003 118.79999999999995 C 105.10000000000004 119.59999999999995 106.70000000000003 122.19999999999996 108.40000000000003 121.39999999999995 C 111.40000000000003 119.99999999999994 126.10000000000004 130.39999999999995 128.80000000000004 132.99999999999994 C 140.20000000000005 143.99999999999994 125.70000000000005 155.09999999999994 120.80000000000004 165.39999999999995 C 118.70000000000005 169.79999999999995 119.90000000000003 171.19999999999996 120.50000000000004 175.89999999999995 C 120.90000000000005 179.29999999999995 123.20000000000005 182.59999999999994 117.70000000000005 177.89999999999995 C 111.60000000000005 172.69999999999996 114.30000000000004 167.19999999999996 112.70000000000005 160.99999999999994 C 111.70000000000005 157.39999999999995 111.10000000000005 156.09999999999994 108.00000000000004 154.19999999999993 C 101.60000000000004 150.19999999999993 93.00000000000004 151.69999999999993 98.30000000000004 137.49999999999994 C 98.90000000000003 135.89999999999995 101.10000000000004 134.29999999999995 101.90000000000003 132.39999999999995 C 106.70000000000003 120.89999999999995 95.80000000000004 116.29999999999995 87.50000000000003 111.59999999999995 C 78.80000000000003 106.69999999999995 74.60000000000002 101.89999999999995 73.70000000000003 91.19999999999996 C 73.50000000000003 88.69999999999996 74.90000000000003 84.09999999999997 74.40000000000003 82.09999999999997 C 73.20000000000003 77.89999999999996 67.70000000000003 76.29999999999997 64.50000000000003 73.89999999999996 C 63.40000000000003 73.09999999999997 60.60000000000003 74.39999999999996 59.800000000000026 73.59999999999997 C 52.200000000000024 65.69999999999996 68.50000000000003 57.69999999999997 73.00000000000003 56.89999999999996 C 78.30000000000003 55.89999999999996 78.90000000000003 57.39999999999996 83.90000000000003 54.79999999999996 C 93.20000000000003 49.89999999999996 94.50000000000003 48.79999999999996 103.40000000000003 46.79999999999996 C 107.80000000000004 45.79999999999996 126.20000000000003 40.39999999999996 120.10000000000004 53.39999999999996 C 116.90000000000003 60.19999999999996 106.80000000000004 57.79999999999996 103.40000000000003 62.599999999999966 C 98.20000000000003 69.89999999999996 112.60000000000004 69.09999999999997 116.00000000000003 68.09999999999997 C 121.90000000000003 66.49999999999997 122.80000000000003 63.39999999999996 123.10000000000002 71.59999999999997 C 123.30000000000003 76.59999999999997 121.30000000000003 81.29999999999997 118.80000000000003 85.29999999999997 C 113.50000000000003 93.69999999999997 116.90000000000002 86.49999999999997 106.20000000000003 94.59999999999997 C 102.70000000000003 97.29999999999997 96.70000000000003 101.79999999999997 95.60000000000004 106.19999999999996 C 93.80000000000004 113.19999999999996 100.20000000000003 112.09999999999997 103.40000000000003 114.99999999999996 C 106.00000000000003 117.39999999999996 104.50000000000003 119.19999999999996 107.10000000000004 121.29999999999995 C 108.2 122.2 109.8 120.2 108.6 119.2 z" stroke-linecap="round" /></g><g transform="matrix(1 0 0 1 20.24 -61.9)" id="Layer_1"  ><path style="stroke: none; stroke-width: 1; stroke-dasharray: none; stroke-linecap: butt; stroke-dashoffset: 0; stroke-linejoin: miter; stroke-miterlimit: 4; fill: rgb(255,255,255); fill-rule: nonzero; opacity: 1;"  transform=" translate(-138.64, -47.35)" d="M 127.4 29.2 C 120.80000000000001 32.1 116.10000000000001 36.5 112.7 42.8 C 112.3 43.5 112.5 44.4 113.2 44.8 C 121.60000000000001 49.099999999999994 132.6 38.099999999999994 137.4 52.3 C 138.70000000000002 56.3 137.1 63.8 142.6 65.39999999999999 C 145.7 66.3 147.7 64.19999999999999 149.6 62.099999999999994 C 154.2 57.099999999999994 162.2 53.89999999999999 164.7 47.39999999999999 C 165.29999999999998 45.79999999999999 162.6 44.599999999999994 161.89999999999998 46.19999999999999 C 159.89999999999998 50.999999999999986 155.7 51.89999999999999 151.99999999999997 54.89999999999999 C 150.89999999999998 55.79999999999999 149.39999999999998 58.19999999999999 148.29999999999998 58.79999999999999 C 136.79999999999998 65.1 142.1 47.69999999999999 138.39999999999998 42.599999999999994 C 136.29999999999998 39.599999999999994 132.79999999999998 39.3 129.39999999999998 39.8 C 126.59999999999998 40.199999999999996 118.19999999999997 46.3 116.39999999999998 41.9 C 115.19999999999997 38.9 126.09999999999998 32.7 128.49999999999997 31.4 C 130.1 30.6 128.8 28.6 127.4 29.2 L 127.4 29.2 z" stroke-linecap="round" /></g><g transform="matrix(1 0 0 1 50.69 16.4)" id="Layer_1"  ><path style="stroke: none; stroke-width: 1; stroke-dasharray: none; stroke-linecap: butt; stroke-dashoffset: 0; stroke-linejoin: miter; stroke-miterlimit: 4; fill: rgb(29,141,227); fill-rule: nonzero; opacity: 1;"  transform=" translate(-169.09, -125.65)" d="M 170.3 92.4 C 164.5 98.9 147.5 114 151.9 124.5 C 153.70000000000002 128.7 157.9 129.8 162 130.5 C 168.9 131.7 169.8 128.6 173.2 138.8 C 175 144.20000000000002 174.2 152 174.7 157.70000000000002 C 174.79999999999998 158.50000000000003 175.39999999999998 159.20000000000002 176.2 159.20000000000002 C 179.29999999999998 159.20000000000002 182.39999999999998 159.20000000000002 185.5 159.10000000000002 C 187.5 159.10000000000002 187.5 156.00000000000003 185.5 156.00000000000003 C 168.3 156.10000000000002 183.5 133.40000000000003 171.7 128.10000000000002 C 170.7 127.60000000000002 169.5 128.00000000000003 168.39999999999998 127.80000000000003 C 165.49999999999997 127.80000000000003 162.59999999999997 127.50000000000003 159.7 126.90000000000002 C 158.5 123.00000000000001 157.29999999999998 119.10000000000002 156.1 115.20000000000002 C 156.79999999999998 108.40000000000002 168 99.00000000000001 172.1 93.60000000000002 C 172.8 92.8 171.1 91.5 170.3 92.4 L 170.3 92.4 z" stroke-linecap="round" /></g><g transform="matrix(1 0 0 1 57.6 -23.71)" id="Layer_1"  ><path style="stroke: none; stroke-width: 1; stroke-dasharray: none; stroke-linecap: butt; stroke-dashoffset: 0; stroke-linejoin: miter; stroke-miterlimit: 4; fill: rgb(29,141,227); fill-rule: nonzero; opacity: 1;"  transform=" translate(-176, -85.54)" d="M 171.4 96.1 C 182.9 94 188.4 97.3 188.1 106 C 188.2 106.8 188.4 107.6 188.6 108.4 C 188.79999999999998 108.7 189 109 189.29999999999998 109.30000000000001 C 191.49999999999997 111.60000000000001 195.89999999999998 112.60000000000001 198.79999999999998 112.00000000000001 C 199.29999999999998 111.90000000000002 199.7 111.40000000000002 199.89999999999998 110.90000000000002 C 204.39999999999998 94.50000000000003 191.09999999999997 84.00000000000003 175.7 84.30000000000001 C 173 84.4 171.2 84.70000000000002 168.79999999999998 85.9 C 165.99999999999997 87.30000000000001 161.2 93.10000000000001 158.29999999999998 93 C 153.89999999999998 91.8 153.49999999999997 90 156.89999999999998 87.6 C 158.2 84.6 160.59999999999997 83.5 163.99999999999997 84.19999999999999 C 165.09999999999997 83.99999999999999 166.29999999999998 83.99999999999999 167.29999999999998 83.49999999999999 C 170.6 81.99999999999999 171.99999999999997 80.49999999999999 172.7 76.99999999999999 C 172.89999999999998 76.19999999999999 172.5 75.39999999999999 171.6 75.09999999999998 C 160.2 71.49999999999999 178 55.79999999999998 180.7 67.99999999999999 C 180.79999999999998 68.59999999999998 181.5 69.09999999999998 182.2 69.09999999999998 C 184.2 69.09999999999998 186.29999999999998 69.09999999999998 188.29999999999998 69.09999999999998 C 190.2 69.09999999999998 190.2 66.09999999999998 188.29999999999998 66.09999999999998 C 181.99999999999997 65.99999999999999 184.39999999999998 63.89999999999998 180.99999999999997 60.69999999999998 C 179.29999999999998 58.99999999999998 177.69999999999996 58.59999999999998 175.39999999999998 59.09999999999998 C 168.79999999999998 60.39999999999998 163.09999999999997 68.19999999999997 162.79999999999998 74.49999999999999 C 162.79999999999998 75.19999999999999 163.29999999999998 75.79999999999998 163.89999999999998 75.99999999999999 C 173.2 78.89999999999999 155.59999999999997 81.59999999999998 153.09999999999997 84.79999999999998 C 151.39999999999998 86.99999999999999 150.49999999999997 92.29999999999998 151.89999999999998 94.79999999999998 C 155.79999999999998 101.89999999999998 165.59999999999997 90.89999999999998 169.49999999999997 88.89999999999998 C 178.39999999999998 84.39999999999998 193.29999999999998 88.49999999999997 196.99999999999997 98.59999999999998 C 197.89999999999998 100.99999999999999 199.19999999999996 107.79999999999998 195.09999999999997 108.39999999999998 C 190.49999999999997 108.99999999999997 191.89999999999998 102.69999999999997 190.79999999999995 100.69999999999997 C 186.69999999999996 93.19999999999997 176.79999999999995 85.69999999999997 169.89999999999995 94.39999999999998 C 169 95.7 170.4 97.2 171.4 96.1 L 171.4 96.1 z" stroke-linecap="round" /></g><g transform="matrix(1 0 0 1 -0.52 0.62)" id="Layer_1"  ><path style="stroke: none; stroke-width: 1; stroke-dasharray: none; stroke-linecap: butt; stroke-dashoffset: 0; stroke-linejoin: miter; stroke-miterlimit: 4; fill: rgb(255,255,255); fill-rule: nonzero; opacity: 1;"  transform=" translate(-117.88, -109.87)" d="M 110.5 28.2 C 42.1 26.4 4.9 130.6 58.4 173.1 C 87.2 196 132.4 199.1 164 180.7 C 194.4 163 209.8 120.99999999999999 199.8 87.19999999999999 C 188.3 48.39999999999999 148.70000000000002 29.79999999999999 111.30000000000001 27.099999999999987 C 109.20000000000002 26.899999999999988 109.20000000000002 30.19999999999999 111.30000000000001 30.399999999999988 C 151.8 33.39999999999999 197.8 57.69999999999999 198.9 103.8 C 200 150.1 169.20000000000002 188.5 121.30000000000001 189.6 C 99.9 190.1 73.10000000000001 182.5 57.10000000000001 167.9 C 42.10000000000001 154.1 35.00000000000001 129.5 36.50000000000001 109.60000000000001 C 39.50000000000001 68.9 69.20000000000002 34.30000000000001 110.6 30.30000000000001 C 111.8 30.1 111.8 28.2 110.5 28.2 L 110.5 28.2 z" stroke-linecap="round" /></g></g></g></svg>