<svg viewBox = "0 0 236.8 218.5" width="236.8" height="218.5" xmlns="http://www.w3.org/2000/svg"><g transform="matrix(1 0 0 1 118.4 109.25)"  ><g style=""   ><g transform="matrix(1 0 0 1 -40.55 72.28)" id="Layer_1"  ><path style="stroke: none; stroke-width: 1; stroke-dasharray: none; stroke-linecap: butt; stroke-dashoffset: 0; stroke-linejoin: miter; stroke-miterlimit: 4; fill: rgb(29,141,227); fill-rule: nonzero; opacity: 1;"  transform=" translate(-77.85, -181.53)" d="M 106.3 188.3 C 106.6 186.20000000000002 106.5 184.20000000000002 105.8 182.60000000000002 C 105.1 180.90000000000003 104.1 180.20000000000002 102.89999999999999 179.8 C 95.3 177.60000000000002 87.6 175.5 79.89999999999999 173.4 C 74.99999999999999 172 69.99999999999999 170.9 64.99999999999999 169.70000000000002 C 63.19999999999999 169.3 61.499999999999986 168.8 59.69999999999999 168.4 C 59.09999999999999 168.3 58.59999999999999 168.1 57.999999999999986 168 C 57.19999999999999 167.8 56.399999999999984 167.5 55.499999999999986 167.5 C 54.09999999999999 167.5 52.899999999999984 167.9 51.69999999999999 169.4 C 50.59999999999999 170.8 49.69999999999999 172.8 49.39999999999999 175 C 48.69999999999999 179.5 50.29999999999999 183.5 52.99999999999999 184 C 55.99999999999999 184.7 58.99999999999999 185.2 61.99999999999999 185.8 C 64.6 186.3 67.19999999999999 186.9 69.8 187.5 C 72.3 188.1 74.8 188.5 77.2 189.2 C 80.7 190.1 84.3 191.1 87.8 192 C 92 193.1 96.2 194.3 100.39999999999999 195.5 C 101.6 195.8 102.99999999999999 195 103.99999999999999 193.7 C 105.2 192.3 106 190.4 106.3 188.3 z" stroke-linecap="round" /></g><g transform="matrix(1 0 0 1 84.08 -4.34)" id="Layer_1"  ><path style="stroke: none; stroke-width: 1; stroke-dasharray: none; stroke-linecap: butt; stroke-dashoffset: 0; stroke-linejoin: miter; stroke-miterlimit: 4; fill: rgb(29,141,227); fill-rule: nonzero; opacity: 1;"  transform=" translate(-202.48, -104.91)" d="M 187.9 130.2 C 189.8 131.1 191.8 131.5 193.5 131.39999999999998 C 195.3 131.2 196.3 130.49999999999997 197 129.39999999999998 C 201.3 122.69999999999997 205.5 115.89999999999998 209.6 109.19999999999997 C 212.29999999999998 104.79999999999997 214.79999999999998 100.39999999999998 217.4 95.99999999999997 C 218.3 94.39999999999998 219.20000000000002 92.89999999999998 220.20000000000002 91.29999999999997 C 220.50000000000003 90.79999999999997 220.8 90.29999999999997 221.00000000000003 89.79999999999997 C 221.40000000000003 89.09999999999997 221.90000000000003 88.39999999999996 222.20000000000002 87.59999999999997 C 222.60000000000002 86.29999999999997 222.60000000000002 84.99999999999997 221.50000000000003 83.39999999999996 C 220.50000000000003 81.89999999999996 218.80000000000004 80.49999999999996 216.80000000000004 79.59999999999997 C 212.70000000000005 77.69999999999996 208.30000000000004 78.09999999999997 207.20000000000005 80.49999999999997 C 205.70000000000005 83.19999999999997 204.40000000000003 85.89999999999998 202.90000000000003 88.59999999999997 C 201.60000000000002 90.89999999999996 200.40000000000003 93.29999999999997 199.10000000000002 95.59999999999997 C 197.90000000000003 97.79999999999997 196.70000000000002 100.09999999999997 195.40000000000003 102.19999999999996 C 193.50000000000003 105.29999999999995 191.60000000000002 108.49999999999996 189.70000000000005 111.59999999999997 C 187.40000000000003 115.29999999999997 185.10000000000005 118.99999999999997 182.80000000000004 122.69999999999996 C 182.20000000000005 123.69999999999996 182.60000000000005 125.29999999999995 183.50000000000003 126.69999999999996 C 184.4 128 186 129.3 187.9 130.2 z" stroke-linecap="round" /></g><g transform="matrix(1 0 0 1 -40.55 13.3)" id="Layer_1"  ><path style="stroke: none; stroke-width: 1; stroke-dasharray: none; stroke-linecap: butt; stroke-dashoffset: 0; stroke-linejoin: miter; stroke-miterlimit: 4; fill: rgb(29,141,227); fill-rule: nonzero; opacity: 1;"  transform=" translate(-77.85, -122.55)" d="M 18 95.4 C 19.4 96.5 20.9 97.4 22.4 98.4 C 24.299999999999997 99.60000000000001 26.4 100.5 28.4 101.60000000000001 C 31.099999999999998 103.00000000000001 33.699999999999996 104.30000000000001 36.4 105.7 C 40.9 108 45.5 110.10000000000001 50 112.3 C 54 114.2 57.9 116.1 61.9 118.1 C 65.5 119.8 69.2 121.5 72.7 123.39999999999999 C 78.3 126.39999999999999 83.9 129.39999999999998 89.5 132.39999999999998 C 97.2 136.49999999999997 104.8 140.99999999999997 111.8 146.2 C 118.89999999999999 151.79999999999998 125.2 158.29999999999998 131.2 165 C 133.39999999999998 167.5 137.6 167.3 139.89999999999998 165 C 141.09999999999997 163.8 141.7 162.3 141.7 160.6 C 141.7 158.9 141 157.5 139.89999999999998 156.2 C 135.39999999999998 151.1 130.7 146.2 125.69999999999997 141.7 C 120.39999999999998 136.89999999999998 114.69999999999997 132.7 108.69999999999997 128.79999999999998 C 105.49999999999997 126.69999999999999 102.19999999999997 124.69999999999999 98.79999999999997 122.79999999999998 C 96.19999999999997 121.39999999999998 93.69999999999997 119.99999999999999 91.09999999999997 118.59999999999998 C 88.09999999999997 116.89999999999998 85.09999999999997 115.29999999999998 81.99999999999997 113.59999999999998 C 80.59999999999997 112.79999999999998 79.29999999999997 111.99999999999999 77.89999999999998 111.29999999999998 C 72.99999999999997 108.89999999999998 68.19999999999997 106.39999999999998 63.299999999999976 103.89999999999998 C 57.799999999999976 101.09999999999998 52.39999999999998 98.29999999999998 46.99999999999997 95.49999999999997 C 44.89999999999997 94.39999999999998 42.79999999999997 93.29999999999997 40.79999999999997 92.09999999999997 C 40.89999999999997 92.09999999999997 40.99999999999997 92.09999999999997 41.099999999999966 92.09999999999997 C 42.999999999999964 91.99999999999997 44.599999999999966 91.39999999999996 45.999999999999964 90.09999999999997 C 47.29999999999996 88.79999999999997 47.999999999999964 86.99999999999997 47.999999999999964 85.19999999999996 C 47.999999999999964 81.59999999999997 44.89999999999996 78.29999999999995 41.19999999999997 78.29999999999995 C 41.19999999999997 78.29999999999995 41.099999999999966 78.29999999999995 41.099999999999966 78.29999999999995 C 38.79999999999997 78.39999999999995 36.499999999999964 78.49999999999996 34.19999999999997 78.69999999999996 C 32.999999999999964 78.79999999999995 31.79999999999997 78.89999999999996 30.499999999999968 78.99999999999996 C 28.499999999999968 79.19999999999996 26.499999999999968 79.39999999999996 24.499999999999968 79.59999999999995 C 22.699999999999967 79.79999999999995 21.09999999999997 80.29999999999995 19.39999999999997 80.79999999999995 C 17.59999999999997 81.29999999999995 15.99999999999997 82.49999999999996 14.99999999999997 84.19999999999996 C 14.29999999999997 85.29999999999995 13.99999999999997 86.59999999999997 13.99999999999997 87.89999999999996 C 13.99999999999997 89.19999999999996 14.29999999999997 90.39999999999996 14.99999999999997 91.59999999999997 C 15.8 93.1 16.7 94.4 18 95.4 z" stroke-linecap="round" /></g><g transform="matrix(1 0 0 1 3.51 -40.75)" id="Layer_1"  ><path style="stroke: none; stroke-width: 1; stroke-dasharray: none; stroke-linecap: butt; stroke-dashoffset: 0; stroke-linejoin: miter; stroke-miterlimit: 4; fill: rgb(29,141,227); fill-rule: nonzero; opacity: 1;"  transform=" translate(-121.91, -68.5)" d="M 92.3 28.7 C 93 30.9 93.6 33.2 94.5 35.3 C 96.5 40.599999999999994 98.5 46 100.7 51.199999999999996 C 103.5 57.9 106.3 64.6 109.3 71.19999999999999 C 112.2 77.49999999999999 115.39999999999999 83.6 118.8 89.6 C 122.1 95.69999999999999 125.6 101.6 129.2 107.6 C 132.7 113.5 136.6 119.3 140.29999999999998 125.1 C 141.39999999999998 126.8 142.89999999999998 128 144.79999999999998 128.5 C 146.7 129 148.7 128.7 150.29999999999998 127.7 C 153.6 125.7 154.99999999999997 121 152.79999999999998 117.7 C 149.79999999999998 113 146.7 108.5 143.79999999999998 103.7 C 140.79999999999998 98.7 137.89999999999998 93.7 134.99999999999997 88.60000000000001 C 129.59999999999997 79.10000000000001 124.49999999999997 69.4 120.09999999999997 59.400000000000006 C 117.89999999999996 54.300000000000004 115.69999999999996 49.2 113.79999999999997 44.10000000000001 C 112.59999999999997 40.80000000000001 111.29999999999997 37.50000000000001 110.09999999999997 34.20000000000001 C 109.29999999999997 32.20000000000001 108.59999999999997 30.20000000000001 107.89999999999996 28.20000000000001 C 106.69999999999996 24.50000000000001 105.39999999999996 20.90000000000001 104.59999999999997 17.10000000000001 C 104.59999999999997 17.000000000000007 104.59999999999997 16.90000000000001 104.59999999999997 16.70000000000001 C 104.79999999999997 15.00000000000001 104.69999999999996 13.30000000000001 103.69999999999996 11.80000000000001 C 102.69999999999996 10.20000000000001 101.09999999999997 9.00000000000001 99.29999999999995 8.50000000000001 C 97.39999999999995 8.00000000000001 95.49999999999996 8.300000000000011 93.79999999999995 9.300000000000011 C 92.09999999999995 10.300000000000011 91.09999999999995 11.900000000000011 90.49999999999996 13.700000000000012 C 89.39999999999996 17.30000000000001 90.19999999999996 21.00000000000001 91.09999999999995 24.600000000000012 C 91.4 25.9 91.8 27.3 92.3 28.7 z" stroke-linecap="round" /></g></g></g></svg>