<svg viewBox = "0 0 236.8 218.5" width="236.8" height="218.5" xmlns="http://www.w3.org/2000/svg"><g transform="matrix(1 0 0 1 118.4 109.25)"  ><g style=""   ><g transform="matrix(1 0 0 1 0.01 3.64)" id="Layer_1"  ><path style="stroke: none; stroke-width: 1; stroke-dasharray: none; stroke-linecap: butt; stroke-dashoffset: 0; stroke-linejoin: miter; stroke-miterlimit: 4; fill: rgb(255,255,255); fill-rule: nonzero; opacity: 1;"  transform=" translate(-118.41, -112.89)" d="M 49 120.4 C 49.7 110.30000000000001 50.3 101.10000000000001 53.3 92.30000000000001 C 56.099999999999994 83.80000000000001 60.599999999999994 76.10000000000001 66.3 69.20000000000002 C 71.1 63.500000000000014 76.5 58.500000000000014 82.69999999999999 54.30000000000002 C 88.89999999999999 50.100000000000016 95.99999999999999 48.20000000000002 103.1 46.90000000000002 C 109.8 45.70000000000002 116.69999999999999 44.60000000000002 123.5 44.00000000000002 C 135.5 43.00000000000002 146.2 46.60000000000002 156 53.50000000000002 C 165.2 59.90000000000002 172.4 68.10000000000002 177.5 78.00000000000003 C 180 82.90000000000003 183.1 87.60000000000002 183.5 93.40000000000003 C 183.8 97.30000000000004 185.1 101.20000000000003 186.2 105.10000000000004 C 189 115.00000000000004 187.7 124.90000000000003 185.89999999999998 134.70000000000005 C 184.39999999999998 143.20000000000005 181.2 151.10000000000005 176.99999999999997 158.60000000000005 C 174.49999999999997 163.10000000000005 171.19999999999996 166.90000000000006 167.19999999999996 170.00000000000006 C 164.59999999999997 172.00000000000006 161.99999999999997 174.10000000000005 159.19999999999996 175.90000000000006 C 157.49999999999997 177.00000000000006 155.49999999999997 178.10000000000005 153.49999999999997 178.40000000000006 C 144.09999999999997 179.80000000000007 134.69999999999996 181.50000000000006 125.19999999999997 181.90000000000006 C 119.29999999999997 182.20000000000007 113.19999999999997 180.50000000000006 107.19999999999997 179.70000000000007 C 104.99999999999997 179.40000000000006 102.69999999999997 179.30000000000007 100.49999999999997 178.70000000000007 C 89.19999999999997 175.80000000000007 79.19999999999997 170.10000000000008 69.69999999999997 163.50000000000009 C 66.19999999999997 161.10000000000008 63.09999999999997 158.00000000000009 59.99999999999997 155.00000000000009 C 52.99999999999997 148.3000000000001 51.39999999999997 139.4000000000001 49.99999999999997 130.4000000000001 C 49.4 126.9 49.2 123.2 49 120.4 z M 59.1 121 C 59.800000000000004 127 59.6 132.4 60.800000000000004 138 C 62.6 146.7 65.5 154.3 73.2 159.4 C 74.2 160.1 75.10000000000001 161 76 161.8 C 82.7 168.5 91 172.3 100.2 174.20000000000002 C 103.8 174.9 107.4 175.4 111 175.9 C 118.6 176.8 126.2 177.8 133.8 175.3 C 135.3 174.8 136.9 174.5 138.4 174.5 C 150.5 174.3 158.6 167.2 165.70000000000002 158.4 C 169.8 153.3 171.8 147.1 173.70000000000002 140.9 C 176.50000000000003 132 178.4 122.80000000000001 177.20000000000002 113.60000000000001 C 175.60000000000002 101.50000000000001 173.4 89.60000000000001 167.60000000000002 78.60000000000001 C 161.60000000000002 67.2 154.10000000000002 57.50000000000001 142.3 51.70000000000001 C 137 49.10000000000001 131.8 47.60000000000001 125.80000000000001 49.50000000000001 C 120.9 51.10000000000001 115.70000000000002 51.900000000000006 110.70000000000002 53.20000000000001 C 100.30000000000001 56.00000000000001 90.10000000000002 58.90000000000001 81.60000000000002 66.4 C 76.90000000000002 70.5 73.40000000000002 75.4 70.00000000000003 80.4 C 65.00000000000003 87.80000000000001 61.40000000000003 96 60.10000000000003 104.80000000000001 C 59.3 110.2 59.4 115.8 59.1 121 z" stroke-linecap="round" /></g><g transform="matrix(1 0 0 1 20.6 -28.03)" id="Layer_1"  ><path style="stroke: none; stroke-width: 1; stroke-dasharray: none; stroke-linecap: butt; stroke-dashoffset: 0; stroke-linejoin: miter; stroke-miterlimit: 4; fill: rgb(29,141,227); fill-rule: nonzero; opacity: 1;"  transform=" translate(-139, -81.22)" d="M 182.3 25.2 C 179.4 24.9 176.10000000000002 26.099999999999998 174.5 28.599999999999998 C 155.1 60.099999999999994 136.7 92.2 119.1 124.69999999999999 C 113.5 119.89999999999999 108 115.19999999999999 102.39999999999999 110.39999999999999 C 98.8 107.3 88.19999999999999 112.6 93.1 116.8 C 100.69999999999999 123.3 108.19999999999999 129.8 115.8 136.3 C 118.5 138.60000000000002 124.5 136.5 126 133.60000000000002 C 144.8 98.40000000000002 164.7 63.70000000000002 185.7 29.700000000000017 C 187.3 27.2 184.5 25.4 182.3 25.2 z" stroke-linecap="round" /></g></g></g></svg>